<svg xmlns="http://www.w3.org/2000/svg" viewBox="0 0 405.41 96.01"><defs><style>.cls-1{fill:#218e3f;}.cls-2{fill:#fff;}</style></defs><g id="Camada_2" data-name="Camada 2"><g id="Camada_2-2" data-name="Camada 2"><rect class="cls-1" x="180.75" y="18.62" width="190" height="77.39" rx="6.3"/></g><g id="Camada_1-2" data-name="Camada 1" fill="#fff"><path d="M18.48,34.19H0V27.57H44.92v6.62H26.35v54H18.48Z"/><path d="M49.44,67.9C49.59,78.6,56.38,83,64.33,83a29.35,29.35,0,0,0,12.06-2.23l1.38,5.62a34.94,34.94,0,0,1-14.52,2.78c-13.37,0-21.41-8.91-21.41-22s7.77-23.49,20.48-23.49c14.2,0,17.91,12.46,17.91,20.47A19.8,19.8,0,0,1,80,67.9ZM72.6,62.21c.08-5-2-12.82-10.91-12.82-8.08,0-11.52,7.31-12.16,12.82Z"/><path d="M121.13,86.66a30.16,30.16,0,0,1-12.48,2.52c-13.13,0-21.72-8.93-21.72-22.24s9.15-23.21,23.38-23.21a25.44,25.44,0,0,1,11,2.32l-1.76,6.08A19.27,19.27,0,0,0,110.3,50c-9.93,0-15.38,7.44-15.36,16.48,0,10.08,6.48,16.29,15.16,16.29a23.09,23.09,0,0,0,9.69-2.09Z"/><path d="M130.42,24.33h7.87V51.51h.18a15.65,15.65,0,0,1,5.69-5.59,15.93,15.93,0,0,1,8.11-2.2c5.87,0,15.17,3.58,15.17,18.59V88.23h-7.88V63.18c0-7-2.65-12.92-10.06-12.92a11.51,11.51,0,0,0-10.68,7.89,10.7,10.7,0,0,0-.53,3.78v26.3h-7.87Z"/><path class="cls-2" d="M195,87.23V26.57h8.62l19.43,30.66A176.76,176.76,0,0,1,233.91,77l.2-.09c-.71-8.1-.85-15.5-.85-24.89V26.57h7.38V87.23h-8L213.4,56.49a199.35,199.35,0,0,1-11.29-20.31l-.26.09c.46,7.69.57,15,.57,25V87.23H195Z"/><path class="cls-2" d="M278.17,87.23h0l-.7-5.5h-.24a16.18,16.18,0,0,1-13.31,6.49c-8.8,0-13.3-6.24-13.3-12.49,0-10.54,9.34-16.33,26.16-16.21V58.6c0-3.54-1-10.09-9.91-10.05a21.15,21.15,0,0,0-11.34,3.25h0l-1.8-5.26a27.36,27.36,0,0,1,14.37-3.82c13.3,0,16.55,9.09,16.55,17.81V76.82a69.14,69.14,0,0,0,.65,10.41h-7.13ZM276.93,65c-8.56-.18-18.37,1.35-18.37,9.77,0,5.2,3.42,7.58,7.39,7.58a10.9,10.9,0,0,0,10.61-7.29,8.36,8.36,0,0,0,.37-2.49Z"/><path class="cls-2" d="M306.55,31.18V43.71h11.38v6H306.55V73.16c0,5.42,1.56,8.49,6,8.49a15.81,15.81,0,0,0,4.59-.58h0l.36,6h0a20.35,20.35,0,0,1-7.07,1.09c-3.64,0-6.66-1.2-8.55-3.35-2.18-2.41-3.07-6.24-3.07-11.36V49.71h-6.74v-6h6.74V33.22h0l7.75-2Z"/><path class="cls-2" d="M351,87.23h0l-.69-5.5H350a16.18,16.18,0,0,1-13.32,6.49c-8.79,0-13.29-6.24-13.29-12.49,0-10.54,9.34-16.33,26.16-16.21V58.6c0-3.54-1-10.09-9.91-10.05a21.15,21.15,0,0,0-11.34,3.25h0l-1.8-5.26a27.36,27.36,0,0,1,14.37-3.82c13.3,0,16.55,9.09,16.55,17.81V76.82a69.14,69.14,0,0,0,.65,10.41H351ZM349.74,65c-8.56-.18-18.37,1.35-18.37,9.77,0,5.2,3.42,7.58,7.39,7.58a10.9,10.9,0,0,0,10.61-7.29,8.36,8.36,0,0,0,.37-2.49Z"/><path class="cls-1" d="M374.64,25.34c-2.89-3.62,1.18-11.38,1.57-12.11C382.91.78,401.56.07,405.41,0c-1.48,5-7.09,22.1-20,26.1C384.11,26.52,377.28,28.65,374.64,25.34Z"/><path class="cls-1" d="M379.45,18.81c-1,1.24-3.75,4.19-7.58,4.74a6.21,6.21,0,0,1-2.89-.13c-2.77-.86-3.7-3.56-4.12-3.34-.73.38,1,9.08,4.41,9.47,1.23.14,1.53-.95,3.77-2,4.37-2.1,7.72-.08,8.81-1.67C382.45,25,382.33,23.11,379.45,18.81Z"/></g></g></svg>