<svg xmlns="http://www.w3.org/2000/svg" viewBox="0 0 360.48 65.89"><defs><style>.cls-1{fill:#218e3f;}</style></defs><g id="Camada_2" data-name="Camada 2"><g id="Camada_1-2" data-name="Camada 1"><path d="M18.48,9.86H0V3.24H44.92V9.86H26.35v54H18.48Z"/><path d="M49.44,43.56c.15,10.7,6.94,15.12,14.89,15.12a29.35,29.35,0,0,0,12.06-2.23l1.38,5.62a35.14,35.14,0,0,1-14.52,2.77c-13.37,0-21.41-8.91-21.41-22s7.77-23.5,20.48-23.5c14.2,0,17.91,12.46,17.91,20.47A19.65,19.65,0,0,1,80,43.56ZM72.6,37.87c.08-5-2-12.81-10.91-12.81-8.08,0-11.52,7.3-12.16,12.81Z"/><path d="M121.13,62.32a30,30,0,0,1-12.48,2.52c-13.13,0-21.72-8.93-21.72-22.24s9.15-23.2,23.38-23.2a25.44,25.44,0,0,1,11,2.32l-1.76,6.08a19.14,19.14,0,0,0-9.25-2.1c-9.93,0-15.38,7.45-15.36,16.49,0,10.08,6.48,16.28,15.16,16.28a22.93,22.93,0,0,0,9.69-2.09Z"/><path d="M130.42,0h7.87V27.17h.18a15.68,15.68,0,0,1,5.7-5.59,15.87,15.87,0,0,1,8.1-2.2c5.87,0,15.17,3.58,15.17,18.6V63.9h-7.88V38.84c0-7-2.65-12.92-10.06-12.92a11.52,11.52,0,0,0-10.68,7.9,10.68,10.68,0,0,0-.53,3.77V63.9h-7.87Z"/><path class="cls-1" d="M179,64.9V4.24h8.62L207.09,34.9a175.88,175.88,0,0,1,10.82,19.75l.2-.1c-.71-8.09-.85-15.49-.85-24.89V4.24h7.37V64.9h-7.95L197.4,34.15a198.29,198.29,0,0,1-11.29-20.31l-.26.1c.46,7.68.57,15,.57,25V64.9Z"/><path class="cls-1" d="M262.17,64.9l-.7-5.5h-.24a16.18,16.18,0,0,1-13.31,6.49c-8.8,0-13.3-6.24-13.3-12.49,0-10.54,9.34-16.33,26.16-16.21v-.93c0-3.54-1-10.09-9.91-10a21.23,21.23,0,0,0-11.34,3.24l-1.8-5.26a27.46,27.46,0,0,1,14.37-3.82c13.3,0,16.55,9.1,16.55,17.82V54.48a69.19,69.19,0,0,0,.65,10.42Zm-1.24-22.23c-8.56-.18-18.37,1.36-18.37,9.78C242.56,57.64,246,60,250,60a10.89,10.89,0,0,0,10.61-7.28,8.37,8.37,0,0,0,.37-2.5Z"/><path class="cls-1" d="M290.55,8.84V21.37h11.38v6H290.55V50.83c0,5.42,1.56,8.48,6,8.48a15.88,15.88,0,0,0,4.59-.57l.36,6a20.14,20.14,0,0,1-7.08,1.09c-3.63,0-6.66-1.2-8.54-3.35-2.18-2.4-3.07-6.24-3.07-11.35V27.37h-6.74v-6h6.74V10.89Z"/><path class="cls-1" d="M335,64.9l-.7-5.5H334a16.18,16.18,0,0,1-13.31,6.49c-8.8,0-13.3-6.24-13.3-12.49,0-10.54,9.34-16.33,26.16-16.21v-.93c0-3.54-1-10.09-9.91-10a21.23,21.23,0,0,0-11.34,3.24l-1.8-5.26a27.46,27.46,0,0,1,14.37-3.82c13.3,0,16.55,9.1,16.55,17.82V54.48a69.19,69.19,0,0,0,.65,10.42Zm-1.24-22.23c-8.56-.18-18.37,1.36-18.37,9.78,0,5.19,3.42,7.57,7.39,7.57a10.89,10.89,0,0,0,10.61-7.28,8.37,8.37,0,0,0,.37-2.5Z"/><path class="cls-1" d="M344,30.08c-1.55-1.94.63-6.09.84-6.48,3.59-6.67,13.57-7,15.63-7.09-.79,2.69-3.79,11.83-10.68,14C349.08,30.71,345.42,31.85,344,30.08Z"/><path class="cls-1" d="M346.58,26.58a6.89,6.89,0,0,1-4.05,2.54,3.36,3.36,0,0,1-1.55-.07c-1.48-.46-2-1.91-2.2-1.79-.4.2.55,4.86,2.36,5.07.66.08.81-.51,2-1.08,2.35-1.13,4.14-.05,4.72-.9C348.19,29.88,348.13,28.88,346.58,26.58Z"/></g></g></svg>